<?xml version="1.0" encoding="iso-8859-1"?>
<svg version="1.1" id="Layer_1" xmlns="http://www.w3.org/2000/svg" xmlns:xlink="http://www.w3.org/1999/xlink" x="0px" y="0px"
	 viewBox="0 0 512 512" style="enable-background:new 0 0 512 512;" xml:space="preserve">
<path style="fill:#87635C;" d="M111.194,88.525c9.182,0,16.632,7.449,16.632,16.632s-7.449,16.632-16.632,16.632
	s-16.632-7.449-16.632-16.632S102.012,88.525,111.194,88.525z"/>
<path style="fill:#D35B38;" d="M133.373,0c-27.918,0-53.338,10.904-72.197,28.706l22.776,24.126l98.844-0.011
	c0,0,22.764-24.115,22.798-24.148C186.7,10.904,161.291,0,133.373,0z"/>
<g>
	<path style="fill:#FE9837;" d="M22.105,97.046c-4.662,0-8.44,3.778-8.44,8.44c0,4.662,3.778,8.44,8.44,8.44h50.296V97.046H22.105z"
		/>
	<path style="fill:#FE9837;" d="M31.588,130.873c0,4.662,3.778,8.44,8.44,8.44h32.375v-16.879H40.027
		C35.366,122.433,31.588,126.211,31.588,130.873z"/>
	<path style="fill:#FE9837;" d="M182.797,52.821c-12.918-12.13-30.304-19.557-49.422-19.557l38.462,225.37l33.758,7.055V105.484
		C205.595,84.723,196.829,66.01,182.797,52.821z"/>
</g>
<path style="fill:#FFAD61;" d="M171.837,105.484v153.15L44.13,231.931c3.916-16.992,9.722-33.274,17.025-48.623v-77.824
	c0-20.761,8.766-39.475,22.798-52.651c12.918-12.142,30.304-19.568,49.422-19.568c10.184,0,19.433,7.427,26.32,19.557
	C167.167,66.01,171.837,84.723,171.837,105.484z"/>
<circle style="fill:#4D3D36;" cx="111.188" cy="105.157" r="16.632"/>
<path style="fill:#FFAD61;" d="M466.186,130.848l-7.044,13.076c3.432,5.503,5.435,12.355,5.435,19.771L270.883,511.978
	c125.85-1.35,227.451-103.784,227.451-229.961V163.694C498.335,145.555,484.325,130.848,466.186,130.848z"/>
<path style="fill:#FEC45E;" d="M464.577,163.694v118.322c0,126.03-86.477,228.374-193.693,229.961
	c-0.844,0.011-1.688,0.022-2.532,0.022C141.342,512,38.368,409.038,38.368,282.017c0-17.205,2.025-33.961,5.75-50.086
	c0.003,0,24.469,0,60.776,0l153.431,35.327l153.431-35.327l47.385-88.008C462.574,149.426,464.577,156.279,464.577,163.694z"/>
<g>
	<path style="fill:#FFAD61;" d="M375.273,416.738c-4.662,0-8.44-3.778-8.44-8.44c0-4.662,3.778-8.44,8.44-8.44
		c6.352,0,11.518-5.168,11.518-11.519s-5.167-11.518-11.518-11.518c-4.662,0-8.44-3.778-8.44-8.44c0-4.662,3.778-8.44,8.44-8.44
		c15.658,0,28.397,12.739,28.397,28.397C403.671,403.999,390.931,416.738,375.273,416.738z"/>
	<path style="fill:#FFAD61;" d="M324.334,384.758c-4.662,0-8.44-3.778-8.44-8.44c0-4.662,3.778-8.44,8.44-8.44
		c6.352,0,11.518-5.167,11.518-11.518c0-6.351-5.167-11.518-11.518-11.518c-4.662,0-8.44-3.778-8.44-8.44
		c0-4.662,3.778-8.44,8.44-8.44c15.658,0,28.397,12.739,28.397,28.397C352.731,372.018,339.992,384.758,324.334,384.758z"/>
</g>
<path style="fill:#FE9837;" d="M295.594,363.745c0-15.045-12.198-27.243-27.243-27.243c15.045,0,27.243-12.198,27.243-27.243
	s-12.198-27.243-27.243-27.243h-33.758l-33.758,75.213l43.424,86.466c7.866,1.17,15.911,1.778,24.092,1.778
	c15.045,0,27.243-12.198,27.243-27.243c0-15.045-12.198-27.243-27.243-27.243C283.396,390.988,295.594,378.79,295.594,363.745z"/>
<path style="fill:#FFAD61;" d="M244.26,282.017v161.679c-78.758-11.68-139.365-79.726-139.365-161.679v-50.086h66.945
	L244.26,282.017z"/>
<path style="fill:#E86F22;" d="M378,231.931l-35.997,50.086h19.67c27.659,0,50.086-22.427,50.086-50.086H378z"/>
<path style="fill:#FD830C;" d="M171.839,231.931H378c0,27.659-16.114,50.086-35.997,50.086H221.925
	C194.266,282.017,171.839,259.59,171.839,231.931z"/>
<g>
</g>
<g>
</g>
<g>
</g>
<g>
</g>
<g>
</g>
<g>
</g>
<g>
</g>
<g>
</g>
<g>
</g>
<g>
</g>
<g>
</g>
<g>
</g>
<g>
</g>
<g>
</g>
<g>
</g>
</svg>
