<svg id="Flat" height="512" viewBox="0 0 512 512" width="512" xmlns="http://www.w3.org/2000/svg"><path d="m432 24h-24v256h32s0-168-8-256z" fill="#20754d"/><path d="m320 280-32 48-142.25-39.51a63.983 63.983 0 0 1 -91.84-88.3 63.993 63.993 0 0 1 77.91-101.23 63.992 63.992 0 1 1 101.17 78.21l.01.01 8.89 10.51 1.46 1.73z" fill="#35a872"/><circle cx="104" cy="272" fill="#eb423f" r="48"/><circle cx="192" cy="280" fill="#d9db5e" r="48"/><path d="m352.075 56a16 16 0 0 0 15.982-16.774c-.405-8.605-7.818-15.226-16.434-15.226h-23.548a16 16 0 0 0 -16 16v80h32v-32h7.548c8.616 0 16.029-6.621 16.434-15.226a16 16 0 0 0 -15.982-16.774z" fill="#35a872"/><path d="m383.67 165.61-3.1 26.39-1.88 16-20.7 176h-51.98l-15.05-128-1.88-16-8.75-74.39a48.36 48.36 0 0 1 -.33-5.61 47.948 47.948 0 0 1 47.97-48h8.06a47.993 47.993 0 0 1 47.64 53.61z" fill="#f78a25"/><g fill="#d46109"><path d="m328 152a8 8 0 0 1 -8 8h-40a47.632 47.632 0 0 1 2.73-16h37.27a8 8 0 0 1 8 8z"/><path d="m380.57 192-1.88 16h-44.64a8 8 0 1 1 0-16z"/><path d="m352 248a8 8 0 0 1 -8 8h-53.04l-1.88-16h54.92a8 8 0 0 1 8 8z"/><circle cx="352" cy="152" r="8"/></g><circle cx="280" cy="272" fill="#ffd33a" r="48"/><path d="m472 48h16s-24 184-24 232h-32s9.8-168 40-232z" fill="#35a872"/><path d="m24 280h464v208h-464z" fill="#95573a"/><path d="m24 440h464v48h-464z" fill="#b37a60"/><path d="m24 360h464v48h-464z" fill="#b37a60"/><path d="m24 280h464v48h-464z" fill="#b37a60"/><path d="m243.35 189.42a72 72 0 0 1 -49.35 19.58 8 8 0 0 1 0-16 56.03 56.03 0 0 0 39-15.82l8.89 10.51z" fill="#20754d"/></svg>